<?xml version="1.0" standalone="no"?>
<!DOCTYPE svg PUBLIC "-//W3C//DTD SVG 20010904//EN"
 "http://www.w3.org/TR/2001/REC-SVG-20010904/DTD/svg10.dtd">
<svg version="1.0" xmlns="http://www.w3.org/2000/svg"
 width="512.000000pt" height="512.000000pt" viewBox="0 0 512.000000 512.000000"
 preserveAspectRatio="xMidYMid meet">
<metadata>
Created by potrace 1.14, written by Peter Selinger 2001-2017
</metadata>
<g transform="translate(0.000000,512.000000) scale(0.100000,-0.100000)"
fill="#000000" stroke="none">
<path d="M1637 4714 c-1 -1 -44 -5 -94 -8 -183 -12 -220 -26 -280 -105 -57
-73 -64 -122 -64 -428 -1 -191 -2 -213 -17 -214 -142 -7 -258 -72 -297 -166
-23 -55 -35 -150 -35 -280 -1 -236 55 -421 162 -538 26 -29 48 -56 48 -60 0
-4 -12 -21 -26 -38 -35 -41 -91 -156 -116 -235 -21 -70 -25 -86 -34 -147 -3
-22 -8 -51 -10 -65 -11 -62 -19 -1476 -9 -1635 5 -92 13 -132 35 -180 30 -65
119 -133 195 -149 17 -4 41 -9 55 -12 134 -27 553 -38 1465 -38 672 0 1103 7
1234 20 47 4 105 11 176 20 67 8 176 68 208 113 68 97 71 141 70 856 -1 852
-4 948 -28 1103 -18 115 -90 284 -150 354 l-32 38 47 50 c120 128 172 316 166
595 -4 171 -19 235 -68 291 -46 52 -160 101 -244 104 -8 0 -11 69 -11 228 0
227 -10 317 -39 374 -18 35 -71 96 -95 109 -45 23 -225 43 -387 42 -71 0 -91
-4 -145 -31 -60 -30 -147 -106 -226 -195 -50 -58 -205 -267 -296 -399 l-80
-116 -105 -4 c-58 -1 -115 -2 -128 0 -19 3 -90 95 -235 305 -19 28 -39 54
-125 162 -125 156 -227 244 -311 268 -31 8 -168 17 -174 11z m1900 -544 l0
-200 -143 0 -144 0 20 23 c11 13 70 97 131 188 107 158 129 189 134 189 1 0 2
-90 2 -200z m-1782 35 c52 -79 111 -164 130 -189 l35 -46 -78 -1 c-83 -1 -171
-1 -187 0 -6 1 -10 72 -10 195 -1 107 3 192 7 190 4 -3 50 -69 103 -149z"/>
</g>
</svg>
